<?xml version="1.0" encoding="utf-8"?>
<!-- Generator: Adobe Illustrator 19.0.0, SVG Export Plug-In . SVG Version: 6.00 Build 0)  -->
<svg version="1.1" id="Layer_1" xmlns="http://www.w3.org/2000/svg" xmlns:xlink="http://www.w3.org/1999/xlink" x="0px" y="0px"
	 viewBox="-482.4 455.7 65 65" style="enable-background:new -482.4 455.7 65 65;" xml:space="preserve">
<path d="M-449.9,455.7c-17.9,0-32.5,14.6-32.5,32.5c0,17.9,14.6,32.5,32.5,32.5c17.9,0,32.5-14.6,32.5-32.5
	C-417.4,470.2-431.9,455.7-449.9,455.7z M-459.9,508.2h-8v-28h8V508.2z M-463.9,476.2c-2.2,0-4-1.8-4-4c0-2.2,1.8-4,4-4s4,1.8,4,4
	C-459.9,474.4-461.7,476.2-463.9,476.2z M-431.9,508.2h-8v-16c0-2.2-1.8-4-4-4s-4,1.8-4,4v16h-8v-28h8v5c1.6-2.3,4.2-5,7-5
	c5,0,9,4.5,9,10V508.2z"/>
</svg>
